<svg width="18" height="20" viewBox="0 0 18 20" fill="none" xmlns="http://www.w3.org/2000/svg">
<path d="M17.4973 14.8907L14.9845 12.2113C14.087 11.2543 12.5614 11.6371 12.2024 12.8811C11.9332 13.7424 11.0357 14.2209 10.2281 14.0294C8.43317 13.551 6.01008 11.0629 5.56136 9.05337C5.29213 8.19209 5.83059 7.23515 6.63829 6.94811C7.80496 6.56534 8.16394 4.93855 7.2665 3.98161L4.75366 1.3022C4.03571 0.632341 2.95878 0.632341 2.33057 1.3022L0.625433 3.12037C-1.0797 5.03424 0.804921 10.106 5.02289 14.6036C9.24087 19.1012 13.9973 21.2065 15.7922 19.2926L17.4973 17.4744C18.1256 16.7088 18.1256 15.5605 17.4973 14.8907Z" fill="#1C2448"/>
</svg>
